<svg width="0" height="0" class="hidden">
  <symbol version="1.0" xmlns="http://www.w3.org/2000/svg" preserveAspectRatio="xMidYMid meet" viewBox="0 0 924.000000 1280.000000" id="fishing">
    <g transform="translate(0.000000,1280.000000) scale(0.100000,-0.100000)" fill="#000000" stroke="none">
      <path d="M8673 12784 c-3 -9 4 -27 16 -42 55 -70 55 -73 4 -149 -106 -155
-652 -861 -779 -1005 -32 -37 -82 -96 -110 -130 -28 -35 -176 -211 -329 -392
-153 -181 -279 -337 -280 -348 -1 -20 -373 -463 -452 -540 -86 -82 -117 -98
-194 -98 -63 0 -69 -2 -69 -21 0 -11 8 -33 19 -47 36 -52 34 -62 -30 -151 -63
-88 -575 -735 -914 -1154 -110 -137 -209 -261 -220 -275 -11 -14 -136 -171
-277 -348 -218 -273 -255 -324 -242 -335 8 -6 16 -10 18 -8 1 2 121 153 266
334 144 182 271 337 281 347 11 9 19 19 19 22 0 3 47 63 105 133 58 71 167
205 242 298 75 94 193 238 262 321 69 82 187 224 261 314 74 91 183 214 242
275 96 99 109 109 126 98 11 -7 44 -15 74 -19 56 -7 108 -36 108 -59 0 -16
-44 -84 -111 -170 -55 -72 -219 -306 -237 -341 -8 -14 -20 -28 -28 -31 -8 -3
-14 -11 -14 -17 0 -7 -33 -57 -74 -112 -168 -229 -547 -764 -799 -1129 -149
-214 -401 -572 -561 -795 -161 -223 -303 -421 -316 -440 -13 -19 -41 -56 -62
-81 -21 -25 -38 -49 -38 -54 0 -17 -72 -95 -88 -95 -34 0 -336 192 -370 235
-12 15 -22 31 -22 36 0 28 272 391 418 559 41 47 93 112 115 145 23 33 49 67
58 75 29 26 111 141 105 147 -3 3 -12 3 -20 0 -33 -13 -416 -480 -563 -688
-45 -64 -103 -135 -128 -158 -42 -39 -50 -42 -83 -36 -20 4 -45 13 -56 21 -33
23 -66 18 -66 -9 0 -12 6 -31 14 -42 8 -11 19 -39 26 -61 l12 -41 -90 -119
c-50 -65 -112 -145 -139 -177 -26 -32 -62 -77 -79 -100 -18 -23 -47 -58 -66
-77 -19 -19 -69 -80 -110 -135 -42 -55 -178 -210 -303 -343 -146 -157 -224
-247 -218 -253 7 -7 -12 -32 -52 -72 -33 -34 -116 -134 -182 -222 -66 -88
-136 -178 -156 -200 -19 -22 -97 -116 -173 -210 -75 -93 -178 -218 -227 -277
l-91 -107 -30 22 c-29 21 -41 22 -226 22 -221 0 -272 -10 -439 -85 -49 -22
-93 -40 -97 -40 -12 0 -303 -294 -341 -345 -122 -162 -293 -537 -293 -644 0
-63 18 -158 37 -196 47 -92 233 -304 314 -356 27 -18 49 -38 49 -45 0 -8 10
-16 22 -18 43 -9 153 -19 197 -18 75 2 195 50 316 127 30 19 61 35 69 35 8 0
18 5 21 10 7 12 58 14 53 2 -6 -14 -136 -203 -249 -362 -129 -182 -419 -612
-714 -1059 -115 -175 -278 -414 -361 -532 -83 -118 -168 -241 -189 -274 -21
-33 -55 -80 -76 -105 -21 -25 -53 -77 -71 -115 -30 -63 -33 -78 -31 -156 1
-64 6 -94 19 -115 30 -49 104 -110 181 -149 66 -34 77 -37 128 -32 31 3 67 13
80 21 38 25 140 163 360 486 114 168 218 316 231 331 13 14 24 30 24 37 0 7 6
12 13 12 6 0 20 17 30 38 9 20 81 127 158 237 78 110 231 333 341 495 315 466
395 581 430 617 18 18 42 51 53 72 39 73 200 319 220 336 6 5 59 80 117 165
107 158 375 527 591 813 123 165 156 222 157 271 0 59 205 383 603 954 108
155 197 285 197 290 0 4 11 19 25 34 14 15 25 34 25 42 0 8 6 19 13 23 6 4 20
24 31 43 25 47 140 219 241 360 46 63 162 235 258 381 97 147 184 273 195 280
10 8 21 21 24 29 3 8 222 331 487 718 265 386 693 1016 952 1400 259 383 475
699 479 702 3 3 35 48 70 100 35 52 100 147 144 210 45 63 97 141 116 172 74
123 701 1046 1098 1617 124 179 240 351 258 382 34 61 336 489 505 715 92 124
120 151 139 139 20 -12 72 -121 76 -159 3 -22 7 -52 9 -66 3 -14 10 -63 15
-110 6 -47 17 -103 25 -125 7 -22 21 -99 29 -172 9 -72 21 -144 28 -160 8 -19
13 -135 16 -370 3 -302 2 -348 -14 -400 -9 -32 -20 -109 -23 -171 -7 -108 -8
-114 -34 -135 -16 -12 -32 -38 -36 -57 -5 -19 -23 -87 -41 -150 -18 -63 -36
-137 -39 -165 -4 -27 -13 -61 -21 -75 -17 -31 -28 -85 -35 -169 -3 -36 -10
-70 -15 -76 -19 -23 -50 -128 -50 -169 0 -23 -7 -50 -15 -60 -8 -11 -15 -29
-15 -41 0 -11 -9 -26 -20 -32 -11 -7 -22 -29 -25 -50 -7 -45 -45 -174 -55
-188 -10 -14 -22 -93 -21 -137 1 -21 -5 -54 -14 -74 -8 -20 -15 -47 -15 -60 0
-13 -5 -35 -12 -49 -9 -19 -9 -28 -1 -33 8 -5 8 -24 -3 -67 -10 -44 -15 -140
-17 -352 -3 -285 -3 -293 -25 -315 -15 -16 -24 -45 -31 -91 -8 -54 -15 -73
-40 -97 -39 -40 -78 -122 -91 -193 -22 -115 38 -233 150 -296 43 -24 70 -47
81 -69 9 -17 28 -47 43 -66 30 -40 34 -95 11 -154 -14 -34 -14 -43 -1 -80 8
-23 18 -70 22 -104 4 -35 11 -71 16 -81 26 -50 38 -142 49 -355 l11 -233 -28
-30 c-59 -61 -131 -23 -153 81 -6 28 -11 59 -11 70 0 27 -11 50 -24 50 -30 0
-50 -126 -23 -149 8 -6 26 -35 41 -66 16 -30 32 -52 37 -49 5 2 22 -2 38 -11
37 -19 75 -19 90 -1 7 8 20 13 29 12 15 -3 18 -24 23 -192 7 -218 12 -254 39
-254 18 0 19 6 13 68 -3 37 -10 72 -15 78 -5 7 -8 104 -8 215 1 112 -1 211 -3
219 -3 8 -8 132 -11 275 l-6 260 25 49 c34 68 33 117 -7 246 -6 18 -19 41 -30
50 -23 19 -35 92 -20 123 6 12 16 41 22 64 9 36 19 48 66 78 60 38 80 72 105
173 10 42 11 71 1 144 -14 112 -37 149 -124 198 -37 21 -71 50 -83 68 -11 18
-35 52 -54 75 -49 61 -58 89 -70 217 -22 238 -10 489 30 617 6 18 12 58 14 90
7 85 10 102 23 115 7 7 12 21 12 33 0 11 9 44 20 73 11 29 20 67 20 86 0 25 7
38 25 50 14 10 25 26 25 39 0 12 7 33 16 45 11 16 14 34 10 56 -6 30 28 140
53 170 5 6 12 40 15 76 10 99 16 131 37 176 10 22 19 56 19 76 0 19 4 48 9 64
5 16 24 81 41 144 25 91 39 122 63 148 31 32 32 36 38 150 3 64 14 145 23 179
15 53 16 104 13 375 -4 315 -6 351 -26 424 -5 21 -15 88 -21 148 -6 60 -18
127 -25 150 -8 23 -19 79 -24 126 -14 126 -18 145 -47 223 -14 40 -39 113 -55
164 -16 51 -41 106 -56 124 -26 30 -29 31 -84 25 -54 -5 -63 -3 -133 34 -41
22 -78 40 -81 40 -3 0 -8 -7 -12 -16z m59 -251 c-11 -16 -46 -71 -78 -123 -32
-52 -95 -144 -139 -205 -45 -60 -181 -261 -303 -445 -282 -427 -312 -470 -329
-470 -7 0 -13 -6 -13 -13 0 -7 -11 -24 -25 -39 -14 -15 -25 -32 -25 -38 0 -6
-7 -13 -15 -16 -8 -4 -15 -12 -15 -19 0 -7 -11 -22 -24 -32 -26 -20 -395 -550
-598 -861 -32 -48 -78 -109 -103 -136 -25 -27 -45 -54 -45 -61 0 -6 -8 -18
-19 -26 -10 -9 -37 -51 -60 -93 -38 -69 -45 -76 -73 -76 -39 0 -118 53 -118
80 0 6 -7 13 -15 16 -25 10 -17 46 22 104 75 112 344 465 430 565 19 22 39 50
44 62 4 12 133 170 286 350 334 395 358 423 366 446 4 9 11 17 17 17 5 0 10 4
10 10 0 10 261 343 564 719 220 272 197 246 219 254 9 3 17 13 17 21 0 8 8 20
18 25 25 15 25 14 4 -16z m-4639 -5897 c46 -29 108 -61 138 -71 30 -9 87 -33
128 -52 72 -34 73 -35 67 -66 -4 -18 -20 -54 -37 -82 -47 -78 -214 -314 -247
-349 -16 -17 -32 -39 -36 -50 -3 -10 -147 -217 -318 -460 -474 -671 -760
-1055 -883 -1184 l-60 -64 -66 13 c-60 11 -70 10 -107 -7 -23 -10 -42 -23 -42
-28 0 -5 -22 -39 -49 -75 -53 -71 -93 -127 -222 -316 -75 -110 -143 -196 -159
-203 -4 -1 -10 74 -14 168 -6 166 -34 360 -59 405 -10 19 -23 74 -33 145 -5
32 1 43 65 120 39 47 132 167 208 267 84 111 145 182 156 182 9 1 17 6 17 13
0 15 82 122 295 383 237 291 213 260 190 251 -11 -4 7 21 41 56 33 35 125 133
204 218 79 85 152 163 162 173 10 10 18 23 18 28 0 6 44 64 98 128 53 65 134
164 180 222 94 119 253 289 270 289 7 0 50 -24 95 -54z"></path>
      <path d="M9050 5590 c0 -5 -9 -10 -20 -10 -19 0 -20 -7 -20 -101 0 -92 -2
-103 -25 -133 -14 -18 -25 -38 -25 -43 0 -16 -26 -23 -84 -23 -40 0 -57 5 -71
20 -10 11 -26 20 -35 20 -10 0 -21 7 -24 15 -3 9 -11 15 -18 14 -7 -1 -21 1
-32 6 -23 10 -38 -11 -31 -45 3 -14 7 -38 9 -53 4 -39 20 -51 61 -49 26 2 35
-1 35 -13 0 -40 221 1 234 43 3 9 26 30 52 46 l45 29 -4 81 c-3 44 -5 109 -6
144 0 56 -2 62 -20 62 -12 0 -21 -4 -21 -10z m7 -232 c-2 -18 -4 -4 -4 32 0
36 2 50 4 33 2 -18 2 -48 0 -65z m-267 -93 c8 -10 30 -15 61 -15 60 0 65 -16
7 -22 -49 -5 -73 4 -88 32 -13 23 2 27 20 5z m-60 -15 c0 -5 -4 -10 -10 -10
-5 0 -10 5 -10 10 0 6 5 10 10 10 6 0 10 -4 10 -10z"></path>
    </g>
  </symbol>
  <symbol version="1.0" xmlns="http://www.w3.org/2000/svg" preserveAspectRatio="xMidYMid meet" viewBox="0 0 1280.000000 1280.000000" id="anchor">
    <g transform="translate(0.000000,1280.000000) scale(0.100000,-0.100000)" fill="#000000" stroke="none">
      <path d="M6267 12549 c-231 -34 -429 -132 -592 -294 -345 -342 -400 -880 -134
-1286 68 -104 176 -216 267 -277 l62 -43 0 -434 0 -435 -1112 0 c-759 0 -1125
-4 -1152 -11 -48 -13 -119 -83 -137 -135 -20 -55 -20 -572 0 -627 18 -52 67
-106 116 -128 38 -18 98 -19 1163 -19 l1122 0 0 -207 c0 -482 -52 -2995 -75
-3643 -22 -619 -39 -989 -56 -1200 -12 -157 -72 -647 -94 -766 -52 -281 -152
-383 -455 -463 -224 -59 -338 -75 -530 -75 -158 0 -185 3 -273 27 -105 28
-257 96 -372 167 -105 64 -313 223 -465 356 -126 109 -770 747 -770 762 0 4
144 47 320 96 176 49 317 93 313 97 -11 10 -1468 669 -1480 669 -6 0 -18 -66
-27 -148 -103 -896 -164 -1447 -162 -1449 1 -1 118 88 260 198 142 110 260
199 261 197 5 -4 510 -960 597 -1128 162 -312 322 -536 537 -750 264 -262 543
-432 863 -524 154 -45 252 -57 523 -66 279 -9 433 -26 615 -66 252 -57 493
-158 645 -271 155 -115 293 -287 343 -425 9 -27 19 -48 22 -48 3 0 17 31 32
68 66 162 204 322 379 438 290 193 690 296 1199 309 239 6 300 11 415 35 472
97 895 386 1245 851 115 153 183 265 300 489 214 413 575 1090 582 1090 3 0
120 -88 258 -196 139 -107 254 -193 257 -191 4 5 -175 1588 -180 1594 -2 2
-340 -149 -750 -334 -411 -186 -743 -340 -739 -344 4 -3 142 -43 307 -88 165
-46 306 -87 314 -91 25 -14 -555 -599 -814 -821 -465 -398 -790 -538 -1163
-500 -151 15 -392 64 -507 102 -115 39 -181 77 -238 137 -100 108 -122 193
-187 722 -41 338 -59 616 -80 1225 -5 160 -12 355 -15 435 -16 442 -48 1948
-71 3322 l-7 408 1146 2 1145 3 44 30 c28 20 52 49 71 84 l27 55 0 286 0 286
-26 52 c-28 56 -68 92 -123 111 -25 8 -343 11 -1152 11 l-1119 0 0 263 c0 145
-3 344 -6 443 l-6 179 53 35 c29 19 83 65 120 102 475 474 378 1261 -198 1611
-187 114 -444 167 -656 136z m252 -544 c219 -58 371 -254 371 -478 0 -262
-226 -487 -490 -487 -173 0 -352 106 -432 256 -77 142 -77 325 0 468 35 65
133 164 198 198 104 56 243 73 353 43z"></path>
    </g>
  </symbol>
  <symbol version="1.0" xmlns="http://www.w3.org/2000/svg" preserveAspectRatio="xMidYMid meet" viewBox="0 0 1259.000000 1280.000000" id="boat">
    <g transform="translate(0.000000,1280.000000) scale(0.100000,-0.100000)" fill="#000000" stroke="none">
      <path d="M4692 12785 c-117 -33 -219 -119 -274 -233 -31 -63 -33 -73 -33 -177
0 -102 2 -114 31 -175 17 -36 52 -88 77 -116 l47 -52 0 -4428 0 -4429 -2205
-3 -2206 -2 118 -138 c294 -344 529 -598 868 -938 610 -612 1134 -1054 1670
-1409 652 -432 1178 -641 1697 -676 274 -19 728 -4 1093 37 1577 173 3471 893
5410 2057 509 305 1181 752 1544 1026 l55 41 -3755 2 -3754 3 -3 4430 -2 4429
29 31 c119 126 160 289 111 436 -41 120 -113 201 -227 256 -61 29 -87 36 -155
39 -54 3 -101 -1 -136 -11z"></path>
      <path d="M5452 11888 c452 -2355 623 -3791 605 -5068 -8 -507 -26 -771 -83
-1160 -90 -620 -263 -1182 -498 -1622 l-72 -135 3126 -6 c1718 -3 3127 -4
3129 -1 12 12 -301 700 -520 1139 -654 1315 -1394 2476 -2338 3665 -804 1013
-1851 2099 -2956 3066 -201 176 -433 374 -438 374 -2 0 18 -114 45 -252z"></path>
      <path d="M4220 9345 c0 -29 -82 -368 -126 -524 -277 -971 -745 -1794 -1468
-2580 -353 -384 -693 -695 -1496 -1366 -567 -474 -836 -707 -1030 -893 l-95
-91 2113 -1 2112 0 0 2735 c0 1504 -2 2735 -5 2735 -3 0 -5 -7 -5 -15z"></path>
    </g>
  </symbol>
  <symbol version="1.1" id="coral" xmlns="http://www.w3.org/2000/svg" xmlns:xlink="http://www.w3.org/1999/xlink" xml:space="preserve" viewBox="0 0 297.001 297.001">
    <g>
      <path d="M291.641,148.041c-4.521-1.968-9.773,0.083-11.74,4.604c-0.337,0.753-6.237,13.531-20.072,20.777
		c4.129-5.834,7.395-11.523,9.955-16.794c12.172-25.057,11.727-46.259,11.702-47.15c-0.138-4.929-4.239-8.84-9.175-8.675
		c-4.929,0.138-8.813,4.245-8.675,9.175c0.015,0.52,0.516,38.164-32.664,69.396c-13.195-15.72-11.573-37.525-11.547-37.848
		c0.431-4.898-3.181-9.226-8.081-9.675c-4.919-0.452-9.256,3.167-9.705,8.079c-0.112,1.229-2.413,29.147,15.431,50.646
		c-8.539,5.888-18.653,11.284-30.609,15.834c-1.215-16.721-5.344-35.084-14.398-54.012c-3.643-7.615-7.004-15.006-10.105-22.151
		c32.06-14.186,46.109-38.733,52.246-57.58c0.034-0.106,0.065-0.211,0.099-0.316c29.84-0.5,47.222-24.197,51.291-37.559
		c1.436-4.717-1.216-9.728-5.933-11.164c-4.722-1.442-9.7,1.201-11.136,5.917c-0.323,1.022-7.538,22.944-30.065,24.828
		c1.926-13.133,1.008-22.549,0.951-23.102c-0.507-4.896-4.87-8.439-9.776-7.952c-4.897,0.494-8.469,4.87-7.989,9.768
		c0.016,0.162,1.506,16.289-4.622,34.653c-1.813,5.435-4.103,10.468-6.816,15.135c-10.606-7.832-16.157-28.717-17.377-36.54
		c-0.754-4.869-5.3-8.211-10.177-7.462c-4.874,0.747-8.22,5.304-7.473,10.179c0.616,4.017,5.822,34.353,24.206,48.076
		c-6.685,6.83-14.802,12.382-24.317,16.63c-23.739-59.176-28.666-97.687-28.722-98.147c-0.593-4.892-5.033-8.374-9.929-7.792
		c-4.896,0.588-8.388,5.034-7.801,9.93c0.285,2.367,7.422,58.925,47.333,142.357c12.019,25.125,15.732,52.197,11.034,80.467
		c-0.085,0.511-0.172,1.017-0.261,1.519c-0.226-0.701-0.459-1.409-0.7-2.122c-7.101-20.94-23.11-51.051-59.05-75.584
		c-2.803-1.913-5.495-3.936-8.106-6.039c10.448-9.226,15.913-22.759,15.913-39.688c0-14.658-4.196-26.863-4.374-27.375
		c-1.623-4.656-6.717-7.113-11.37-5.492c-4.656,1.624-7.115,6.714-5.492,11.37c0.123,0.354,11.438,33.689-7.867,48.899
		c-13.792-14.897-23.95-33.247-30.312-54.838c-7.049-23.919-6.538-43.037-6.532-43.212c0.172-4.929-3.685-9.063-8.613-9.233
		c-4.935-0.191-9.063,3.685-9.233,8.613c-0.03,0.874-0.654,21.692,7.064,48.246c10.276,35.358,30.629,64.232,58.856,83.5
		c0.143,0.098,0.278,0.2,0.421,0.298c-6.99-0.179-15.362-0.968-24.096-3.076c-29.113-7.029-47.852-25.025-55.694-53.491
		c-1.31-4.753-6.227-7.544-10.98-6.237c-4.754,1.31-7.546,6.226-6.236,10.98c9.561,34.702,33.323,57.561,68.719,66.105
		c11.713,2.828,22.818,3.618,31.57,3.618c8.469,0,14.722-0.738,17.203-1.087c9.343,9.195,17.023,19.36,23,30.435
		c-13,3.176-50.148,9.248-79.657-15.266c-3.792-3.15-9.421-2.631-12.573,1.163c-3.151,3.792-2.63,9.421,1.163,12.573
		c21.566,17.917,45.798,22.588,65.207,22.588c15.325,0,27.638-2.912,33.261-4.517c0.208,0.573,0.434,1.136,0.634,1.713
		c6.864,19.807,6.214,34.756,6.207,34.875c-0.236,4.189,2.475,7.978,6.517,9.105c0.797,0.222,1.603,0.329,2.398,0.329
		c3.241,0,6.312-1.772,7.889-4.749c0.316-0.596,2.263-4.354,4.654-10.624c51.675-1.83,85.089-32.129,86.596-33.522
		c3.615-3.341,3.837-8.971,0.505-12.594c-3.331-3.622-8.975-3.859-12.608-0.535c-0.305,0.279-27.389,24.598-68.812,28.375
		c2.123-8.633,3.886-18.874,4.464-30.267c22.448-7.672,39.474-18.024,52.378-29.129c0.078,0,0.157,0.001,0.235,0.001
		c40.681,0,56.332-34.892,56.982-36.385C298.224,155.29,296.162,150.008,291.641,148.041z"></path>
      <path d="M291.641,148.041c-4.521-1.968-9.773,0.083-11.74,4.604c-0.337,0.753-6.237,13.531-20.072,20.777
		c4.129-5.834,7.395-11.523,9.955-16.794c12.172-25.057,11.727-46.259,11.702-47.15c-0.138-4.929-4.239-8.84-9.175-8.675
		c-4.929,0.138-8.813,4.245-8.675,9.175c0.015,0.52,0.516,38.164-32.664,69.396c-13.195-15.72-11.573-37.525-11.547-37.848
		c0.431-4.898-3.181-9.226-8.081-9.675c-4.919-0.452-9.256,3.167-9.705,8.079c-0.112,1.229-2.413,29.147,15.431,50.646
		c-8.539,5.888-18.653,11.284-30.609,15.834c-1.215-16.721-5.344-35.084-14.398-54.012c-3.643-7.615-7.004-15.006-10.105-22.151
		c32.06-14.186,46.109-38.733,52.246-57.58c0.034-0.106,0.065-0.211,0.099-0.316c29.84-0.5,47.222-24.197,51.291-37.559
		c1.436-4.717-1.216-9.728-5.933-11.164c-4.722-1.442-9.7,1.201-11.136,5.917c-0.323,1.022-7.538,22.944-30.065,24.828
		c1.926-13.133,1.008-22.549,0.951-23.102c-0.507-4.896-4.87-8.439-9.776-7.952c-4.897,0.494-8.469,4.87-7.989,9.768
		c0.016,0.162,1.506,16.289-4.622,34.653c-1.813,5.435-4.103,10.468-6.816,15.135c-10.606-7.832-16.157-28.717-17.377-36.54
		c-0.754-4.869-5.3-8.211-10.177-7.462c-4.874,0.747-8.22,5.304-7.473,10.179c0.616,4.017,5.822,34.353,24.206,48.076
		c-6.685,6.83-14.802,12.382-24.317,16.63c-2.877-7.171-5.475-14.035-7.824-20.568v48.003c2.713,6.134,5.61,12.442,8.706,18.913
		c12.019,25.125,15.732,52.197,11.034,80.467c-0.085,0.511-0.172,1.017-0.261,1.519c-0.226-0.701-0.459-1.409-0.7-2.122
		c-3.559-10.495-9.357-23.293-18.779-36.539v40.062c0.339-0.093,0.669-0.184,0.97-0.27c0.208,0.573,0.434,1.136,0.634,1.713
		c6.864,19.807,6.214,34.756,6.207,34.875c-0.236,4.189,2.475,7.978,6.517,9.105c0.797,0.222,1.603,0.329,2.398,0.329
		c3.241,0,6.312-1.772,7.889-4.749c0.316-0.596,2.263-4.354,4.654-10.624c51.675-1.83,85.089-32.129,86.596-33.522
		c3.615-3.341,3.837-8.971,0.505-12.594c-3.331-3.622-8.975-3.859-12.608-0.535c-0.305,0.279-27.389,24.598-68.812,28.375
		c2.123-8.633,3.886-18.874,4.464-30.267c22.448-7.672,39.474-18.024,52.378-29.129c0.078,0,0.157,0.001,0.235,0.001
		c40.681,0,56.332-34.892,56.982-36.385C298.224,155.29,296.162,150.008,291.641,148.041z"></path>
    </g>
  </symbol>
  <symbol version="1.0" xmlns="http://www.w3.org/2000/svg" preserveAspectRatio="xMidYMid meet" viewBox="0 0 1097.000000 1280.000000" id="lighthouse">
    <metadata>Created by potrace 1.15, written by Peter Selinger 2001-2017</metadata>
    <g transform="translate(0.000000,1280.000000) scale(0.100000,-0.100000)" fill="#000000" stroke="none">
      <path d="M5520 12693 c0 -60 -3 -173 -7 -252 -6 -128 -8 -144 -25 -149 -24 -6
-23 -23 2 -29 24 -6 28 -53 5 -53 -8 0 -15 -9 -15 -20 0 -11 7 -20 15 -20 9 0
15 -9 15 -25 0 -15 -6 -25 -14 -25 -7 0 -16 -9 -19 -20 -4 -15 -14 -20 -39
-20 -79 0 -717 -40 -732 -46 -23 -9 -20 -34 10 -78 l27 -39 93 6 94 6 0 -114
c0 -63 -1 -115 -3 -115 -38 0 -234 -33 -243 -41 -11 -9 -14 -53 -14 -196 l0
-184 -40 -38 -40 -38 0 -159 c0 -219 10 -354 25 -354 7 0 16 8 20 18 6 16 7
16 19 0 20 -27 26 -22 26 22 0 30 5 43 23 55 69 45 278 87 532 106 330 25 699
-34 846 -137 33 -23 39 -32 39 -63 l0 -36 20 25 c11 14 20 31 20 38 0 6 11 12
25 12 l25 0 0 213 c0 193 -2 215 -19 241 -29 44 -111 91 -213 123 l-90 28 7
102 c3 56 6 163 6 239 0 160 -6 174 -84 209 -57 26 -158 55 -194 55 -12 0 -24
4 -28 9 -3 5 25 12 62 16 38 4 158 17 268 28 l200 22 3 36 c2 23 -3 43 -16 59
l-19 23 -229 -17 c-126 -9 -241 -19 -256 -21 -20 -3 -28 0 -28 10 0 8 -4 15
-9 15 -17 0 -21 33 -6 50 19 21 19 40 0 40 -23 0 -19 47 5 55 11 3 20 11 20
17 0 5 -9 12 -20 15 -19 5 -20 14 -20 208 0 208 -6 295 -21 295 -5 0 -9 -48
-9 -107z m595 -628 l6 -30 -20 24 c-25 28 -31 75 -7 51 8 -8 18 -28 21 -45z
m-46 -15 c5 -16 7 -30 2 -30 -4 0 -115 -11 -246 -25 -236 -25 -420 -37 -850
-54 -199 -8 -222 -7 -239 7 -17 16 7 17 360 23 l379 5 285 51 c157 28 288 52
292 52 3 1 11 -12 17 -29z m-1339 -45 c0 -26 -14 -33 -25 -15 -9 14 1 40 15
40 5 0 10 -11 10 -25z m373 -90 c-40 -12 -84 -30 -98 -39 -33 -22 -35 -21 -35
19 l0 34 73 4 c39 1 86 4 102 4 19 1 3 -7 -42 -22z m267 10 c0 -9 -9 -15 -21
-15 -22 0 -79 -54 -79 -74 0 -7 -24 -17 -55 -23 l-55 -10 0 58 0 58 58 6 c31
4 62 8 67 10 6 2 27 4 48 4 27 1 37 -3 37 -14z m127 -15 c9 0 14 -3 10 -6 -11
-11 -47 7 -47 24 1 16 2 15 11 0 5 -10 17 -18 26 -18z m166 9 l57 -12 0 -54 0
-55 -37 6 c-82 14 -93 18 -93 32 0 8 -7 14 -15 14 -22 0 -20 56 3 69 22 13 18
13 85 0z m-531 -73 c-3 -44 -7 -56 -20 -56 -10 0 -41 -11 -70 -25 -30 -14 -58
-22 -63 -19 -5 3 -9 25 -9 49 0 39 4 46 36 65 35 22 114 50 124 45 3 -2 3 -28
2 -59z m716 8 c17 -11 22 -24 22 -59 0 -24 -3 -46 -7 -48 -5 -2 -32 7 -60 20
l-53 24 0 55 0 54 38 -15 c20 -9 47 -23 60 -31z m-593 -93 c-8 -46 -17 -56
-62 -64 l-33 -6 0 49 c0 49 0 49 38 55 20 4 42 8 47 9 16 5 17 0 10 -43z m425
30 c34 -7 35 -8 38 -60 3 -47 1 -52 -15 -48 -10 3 -44 11 -75 17 -55 11 -57
12 -63 50 -10 62 -5 64 115 41z m-550 -61 c0 -27 -2 -50 -5 -50 -15 0 -115 43
-115 49 0 9 88 50 108 51 8 0 12 -16 12 -50z m675 21 l40 -18 -30 -15 c-16 -9
-40 -19 -53 -23 -21 -6 -22 -4 -20 34 3 46 7 48 63 22z m-780 -48 c19 -9 35
-22 35 -28 0 -10 -65 -45 -83 -45 -9 0 -9 75 0 83 9 9 7 9 48 -10z m845 -33
c0 -27 -4 -50 -10 -50 -5 0 -10 23 -10 50 0 28 5 50 10 50 6 0 10 -22 10 -50z
m-42 -9 c-3 -18 -5 -18 -41 -4 l-38 16 38 17 c40 18 48 13 41 -29z m-595 13
c-4 -10 -13 -14 -27 -10 -11 3 -28 6 -36 7 -17 1 27 17 52 18 12 1 15 -4 11
-15z m422 7 c30 -7 30 -7 -12 -15 -42 -8 -63 -3 -63 15 0 10 30 10 75 0z
m-727 -37 c-2 -14 -16 -21 -58 -27 -58 -8 -80 -25 -80 -64 0 -16 -6 -23 -19
-23 -10 0 -33 -3 -50 -6 l-32 -7 3 64 3 64 110 16 c61 9 114 13 118 8 5 -4 7
-15 5 -25z m202 -23 c0 -47 -9 -61 -41 -61 -14 0 -11 98 4 103 31 13 37 6 37
-42z m92 3 c-6 -38 -12 -44 -42 -44 -29 0 -31 2 -29 33 4 45 5 45 41 38 25 -6
32 -12 30 -27z m498 -15 c0 -43 -2 -50 -17 -45 -10 3 -34 8 -55 11 -25 5 -38
13 -42 28 -12 46 -10 48 92 55 20 2 22 -2 22 -49z m70 33 c46 -23 50 -47 9
-61 -53 -18 -59 -15 -59 34 0 50 1 51 50 27z m-730 -53 c0 -23 -3 -23 -43 -2
l-32 17 30 6 c37 8 45 4 45 -21z m-130 -9 c0 -20 -6 -23 -83 -35 -36 -6 -38
-5 -35 16 3 25 30 36 86 38 26 1 32 -3 32 -19z m90 -10 l35 -19 -37 -15 c-49
-21 -48 -21 -48 19 0 40 3 41 50 15z m850 -14 c0 -19 -4 -38 -10 -41 -6 -4
-10 10 -10 34 0 23 5 41 10 41 6 0 10 -15 10 -34z m-42 -20 c-3 -12 -8 -12
-38 1 l-35 15 35 13 c37 13 46 5 38 -29z m-613 24 c-3 -5 -21 -10 -38 -9 -27
0 -29 2 -12 9 28 12 57 12 50 0z m475 -10 c20 -6 21 -8 5 -8 -11 -1 -38 3 -60
7 l-40 9 35 0 c19 0 46 -4 60 -8z m-565 -6 c-30 -12 -106 -32 -100 -26 10 11
68 30 90 30 11 0 16 -1 10 -4z m-195 -33 c0 -10 -6 -24 -14 -30 -11 -9 -15 -7
-19 10 -8 29 -51 23 -55 -8 -5 -31 -32 -30 -32 1 0 21 7 26 43 34 65 15 77 14
77 -7z m880 -3 c10 -6 7 -7 -10 -2 -14 3 -32 11 -40 16 -10 6 -7 7 10 2 14 -3
32 -11 40 -16z m-1020 -22 c0 -23 -2 -23 -41 -14 -44 12 -41 24 6 31 17 2 31
5 33 6 1 0 2 -10 2 -23z m1080 -6 c0 -5 -4 -10 -10 -10 -5 0 -10 5 -10 10 0 6
5 10 10 10 6 0 10 -4 10 -10z m-1082 -68 c3 -16 -2 -22 -16 -22 -11 0 -34 -3
-51 -6 -31 -6 -31 -6 -31 33 0 22 3 42 6 46 3 3 24 -2 47 -12 28 -12 43 -25
45 -39z m42 -3 c0 -5 -4 -9 -10 -9 -5 0 -10 7 -10 16 0 8 5 12 10 9 6 -3 10
-10 10 -16z m79 -6 c0 -5 -4 -17 -9 -28 -8 -18 -9 -17 -9 8 -1 15 4 27 9 27 6
0 10 -3 9 -7z m-62 -57 c-9 -23 -37 -20 -37 3 0 21 20 33 34 20 5 -4 6 -15 3
-23z m-57 0 c0 -33 -30 -41 -70 -21 -18 9 -30 18 -28 20 4 4 70 21 91 24 4 1
7 -10 7 -23z m78 -183 l-2 -168 -6 160 c-3 88 -4 163 -2 168 10 23 12 -10 10
-160z m29 -75 c-1 -46 -3 -9 -3 82 0 91 2 128 3 83 2 -46 2 -120 0 -165z m-59
75 c-1 -133 -2 -146 -8 -83 -14 146 -11 240 7 240 2 0 2 -71 1 -157z m-128
137 c0 -5 -4 -10 -10 -10 -5 0 -10 5 -10 10 0 6 5 10 10 10 6 0 10 -4 10 -10z
m92 -183 c2 -53 0 -97 -4 -97 -5 0 -7 66 -6 148 2 148 5 130 10 -51z m-35 -19
c-1 -40 -3 -10 -3 67 0 77 1 110 3 73 2 -37 2 -100 0 -140z m1183 35 c0 -92
-4 -163 -8 -157 -8 9 -4 324 4 324 2 0 4 -75 4 -167z m27 -75 c-1 -46 -3 -11
-3 77 0 88 2 125 3 83 2 -42 2 -114 0 -160z m-1240 40 c-2 -35 -3 -7 -3 62 0
69 1 97 3 63 2 -35 2 -91 0 -125z m1270 -35 c-1 -43 -3 -10 -3 72 0 83 2 118
3 78 2 -40 2 -107 0 -150z m-1300 50 c-2 -32 -3 -8 -3 52 0 61 1 87 3 58 2
-29 2 -78 0 -110z m1330 -45 c-1 -40 -3 -10 -3 67 0 77 1 110 3 73 2 -37 2
-100 0 -140z m30 5 c-2 -37 -3 -9 -3 62 0 72 1 102 3 68 2 -34 2 -93 0 -130z
m30 10 c-2 -32 -3 -8 -3 52 0 61 1 87 3 58 2 -29 2 -78 0 -110z m-190 -65 c-2
-24 -4 -5 -4 42 0 47 2 66 4 43 2 -24 2 -62 0 -85z m-983 -43 c-4 -8 -8 -15
-10 -15 -2 0 -4 7 -4 15 0 8 4 15 10 15 5 0 7 -7 4 -15z m519 -2 c-29 -2 -77
-2 -105 0 -29 2 -6 3 52 3 58 0 81 -1 53 -3z m-776 -95 c-3 -7 -5 -2 -5 12 0
14 2 19 5 13 2 -7 2 -19 0 -25z m1483 -122 c0 -47 -16 -64 -24 -26 -3 18 -6
44 -6 57 0 22 2 24 15 13 8 -7 15 -27 15 -44z"></path>
      <path d="M5060 10719 c-115 -10 -277 -29 -307 -36 -21 -5 -23 -10 -25 -130
l-3 -125 -84 -29 c-47 -16 -88 -32 -93 -37 -5 -5 -7 -98 -6 -208 l3 -199 90
-47 c50 -26 93 -47 98 -48 4 0 7 26 7 59 0 52 2 59 23 65 32 8 30 9 78 -29 24
-19 51 -35 60 -35 18 0 29 28 29 71 0 24 5 27 46 33 95 13 107 10 134 -34 34
-55 60 -54 60 4 l0 43 68 6 c37 4 88 7 113 7 46 0 46 0 53 -40 8 -51 30 -52
42 -2 l9 37 60 -3 c33 -1 86 -5 118 -8 l57 -6 0 -44 c0 -57 24 -59 63 -3 21
30 32 38 50 35 133 -28 127 -25 127 -67 0 -27 4 -39 14 -39 9 0 18 -19 25 -51
6 -29 10 -53 8 -55 -2 -2 -54 3 -116 12 -62 8 -193 19 -290 22 l-176 7 -3 48
-3 47 -100 0 -99 0 0 -49 0 -49 -97 -7 c-306 -21 -566 -78 -688 -149 -23 -14
-59 -44 -80 -67 l-38 -42 7 -81 c3 -45 6 -138 6 -208 l0 -127 33 -37 c35 -41
151 -101 250 -129 31 -9 57 -20 57 -23 0 -17 -136 -1855 -200 -2702 -38 -509
-92 -1240 -120 -1625 -28 -385 -56 -770 -63 -855 l-12 -155 -40 -2 c-229 -14
-484 -45 -560 -68 -34 -10 -97 -59 -274 -214 l-230 -201 -1571 0 -1570 0 0
-1575 0 -1575 5485 0 5485 0 0 1575 0 1575 -1707 0 -1708 0 -263 205 c-145
112 -271 206 -280 209 -32 9 -157 25 -272 36 -63 6 -138 13 -167 16 l-51 5 -6
67 c-4 37 -33 468 -66 957 -33 490 -87 1275 -120 1745 -97 1383 -171 2512
-168 2553 3 39 3 39 73 61 128 41 212 93 242 149 5 9 7 109 6 224 -4 232 -4
233 -75 281 -41 27 -165 82 -187 82 -5 0 -13 5 -16 10 -4 6 -15 134 -25 285
-11 151 -24 284 -30 294 -5 11 -19 23 -30 26 -11 3 -20 15 -20 25 0 25 -20 34
-100 49 -110 20 -100 6 -100 146 0 145 17 129 -155 145 -127 12 -545 11 -685
-1z m-313 -266 c-3 -10 -5 -2 -5 17 0 19 2 27 5 18 2 -10 2 -26 0 -35z m1306
-69 c14 -4 17 -17 17 -75 0 -38 -2 -69 -4 -69 -3 0 -195 37 -233 46 -13 2 -23
11 -23 19 0 12 10 15 43 13 l42 -3 3 51 3 51 67 -14 c37 -7 75 -16 85 -19z
m-1323 -54 c0 -36 4 -60 11 -60 5 0 7 -4 4 -10 -8 -13 -45 -13 -45 0 0 5 -27
12 -60 16 -60 7 -60 7 -60 39 0 31 3 33 63 53 89 29 87 30 87 -38z m695 0 c3
-5 -58 -10 -160 -12 -170 -3 -233 9 -77 15 193 7 231 7 237 -3z m315 -9 c19
-4 33 -11 30 -16 -3 -6 -8 -9 -11 -8 -3 1 -71 7 -152 14 -80 7 -144 15 -142
18 4 8 231 1 275 -8z m384 -7 c8 -20 47 -546 41 -552 -2 -2 -12 -1 -22 2 -15
5 -24 29 -41 112 -12 58 -20 109 -17 114 2 4 5 82 6 174 2 123 6 166 15 166 6
0 15 -7 18 -16z m-1069 1 c-24 -9 -259 -45 -263 -40 -10 10 4 14 98 28 86 14
190 21 165 12z m375 -100 l0 -75 -149 0 c-82 0 -156 -3 -165 -6 -14 -5 -16 5
-16 69 0 64 3 76 18 80 9 3 83 5 165 6 l147 1 0 -75z m171 65 c57 -5 119 -12
137 -15 l32 -6 0 -75 c0 -67 -2 -75 -17 -70 -10 3 -52 8 -93 11 -41 3 -103 8
-137 11 l-63 6 0 74 c0 86 -15 79 141 64z m-541 -74 l0 -73 -72 -6 c-40 -4
-101 -10 -136 -13 l-63 -7 3 64 3 64 65 13 c59 12 156 28 188 31 8 1 12 -20
12 -73z m895 24 c53 -11 101 -22 106 -26 10 -6 13 -144 3 -144 -3 0 -32 6 -63
14 -31 8 -89 20 -130 26 l-73 12 6 30 c3 17 6 48 6 69 0 47 5 48 145 19z
m-1330 -10 c-28 -12 -47 -12 -40 0 3 6 18 10 33 9 24 0 25 -1 7 -9z m123 -62
l-3 -63 -41 -6 c-22 -4 -58 -14 -78 -23 -44 -18 -49 -12 -44 60 l3 48 70 23
c100 31 96 33 93 -39z m1312 -212 c0 -8 -14 -16 -32 -18 l-32 -5 23 18 c28 23
41 24 41 5z m-853 -78 c-2 -13 -4 -5 -4 17 -1 22 1 32 4 23 2 -10 2 -28 0 -40z
m863 16 c0 -21 -5 -24 -35 -24 -24 0 -35 5 -35 15 0 8 -1 18 -2 22 -3 9 53 22
65 16 4 -2 7 -15 7 -29z m14 -56 c10 -37 8 -39 -31 -36 -30 2 -39 8 -41 25 -2
16 3 23 20 26 43 8 46 7 52 -15z m-654 -28 c0 -13 -7 -20 -20 -20 -13 0 -20 7
-20 20 0 13 7 20 20 20 13 0 20 -7 20 -20z m176 10 c38 0 44 -3 44 -21 0 -21
-3 -22 -61 -15 -34 3 -75 6 -90 6 -23 0 -29 5 -29 21 0 20 4 21 46 15 26 -3
66 -6 90 -6z m-416 -20 c0 -18 -7 -20 -59 -20 -33 0 -66 -3 -75 -6 -11 -4 -16
0 -16 13 0 30 8 33 82 33 61 0 68 -2 68 -20z m613 5 c38 -5 47 -10 47 -26 0
-17 -5 -19 -32 -15 -18 3 -54 8 -80 11 -38 5 -48 10 -48 25 0 15 6 18 33 15
17 -3 53 -7 80 -10z m-793 -14 c0 -20 -3 -21 -122 -37 -44 -6 -48 -5 -48 15 0
21 14 27 80 34 83 9 90 8 90 -12z m337 2 c-20 -2 -52 -2 -70 0 -17 2 0 4 38 4
39 0 53 -2 32 -4z m606 -8 c28 -4 37 -11 37 -26 0 -15 -5 -19 -17 -16 -10 3
-35 8 -55 12 -29 4 -38 11 -38 26 0 15 5 19 18 16 9 -3 34 -8 55 -12z m-1143
-24 c0 -14 -12 -21 -57 -30 -73 -14 -73 -14 -73 9 0 21 40 38 98 39 25 1 32
-3 32 -18z m620 -102 l0 -109 -90 0 -90 0 0 110 0 109 68 3 c119 5 112 12 112
-113z m-218 0 c2 -69 -1 -113 -7 -115 -5 -1 -45 -4 -87 -6 l-78 -3 0 112 0
112 43 4 c23 2 61 4 84 5 l42 2 3 -111z m433 -1 c-4 -62 -9 -115 -10 -116 -2
-2 -43 -1 -90 3 l-87 8 6 30 c3 16 6 65 6 108 l0 79 91 0 91 0 -7 -112z m455
92 c0 -5 -9 -12 -21 -15 -23 -7 -45 7 -35 23 6 11 56 4 56 -8z m-254 -3 c2 -2
1 -53 -3 -114 l-6 -111 -31 4 c-17 2 -52 6 -78 9 l-48 6 0 111 0 111 81 -6
c45 -4 83 -8 85 -10z m-1206 -19 c0 -19 -10 -26 -56 -39 l-55 -17 3 26 c2 21
11 29 43 38 57 18 65 17 65 -8z m370 -5 c0 -16 -3 -65 -7 -110 l-6 -83 -31 -4
c-17 -3 -53 -8 -79 -11 l-48 -6 3 113 3 113 40 6 c22 3 59 7 83 8 40 1 42 -1
42 -26z m1144 21 c17 -7 22 -44 6 -44 -9 0 -30 31 -30 44 0 8 5 7 24 0z m-162
-20 c10 -6 16 -51 21 -147 l4 -79 -55 7 c-86 11 -82 4 -82 127 l0 111 52 -7
c28 -4 55 -9 60 -12z m-1190 -115 l-4 -106 -50 -12 c-27 -6 -54 -11 -59 -11
-5 0 -9 49 -9 110 l0 109 38 10 c61 16 77 18 83 12 3 -3 4 -54 1 -112z m1466
100 c12 -5 22 -17 22 -28 0 -19 -2 -19 -45 -4 -33 11 -45 20 -45 35 0 20 6 20
68 -3z m-164 -15 c21 -21 12 -34 -25 -34 -24 0 -29 4 -29 25 0 29 29 34 54 9z
m-1604 -14 c0 -13 -12 -25 -36 -35 -45 -19 -44 -19 -44 4 0 22 35 51 62 51 11
0 18 -7 18 -20z m138 -99 c-2 -60 -6 -112 -8 -115 -8 -8 -99 -31 -102 -25 -2
2 -2 52 0 111 l3 108 47 14 c26 8 51 15 56 15 4 1 7 -48 4 -108z m1531 57 c-1
-45 -2 -49 -9 -23 -11 44 -11 75 0 75 6 0 9 -23 9 -52z m196 26 c21 -14 35
-44 20 -44 -19 0 -55 27 -55 42 0 22 4 22 35 2z m-108 -4 c29 -10 31 -15 37
-78 3 -37 6 -89 6 -115 0 -46 -1 -48 -22 -41 -71 22 -66 13 -70 134 -3 118 -3
118 49 100z m-1867 -33 c0 -24 -55 -86 -66 -75 -9 9 4 43 27 72 25 32 39 33
39 3z m91 -210 c-7 -7 -19 -7 -36 1 -24 11 -25 15 -25 100 l0 88 33 16 32 15
3 -105 c2 -61 -1 -109 -7 -115z m1637 196 c-2 -22 -9 -29 -30 -31 -16 -2 -28
0 -28 5 0 4 -3 18 -6 31 -6 20 -3 22 30 22 35 0 37 -2 34 -27z m272 -90 c0
-61 -3 -74 -19 -83 -38 -20 -41 -13 -41 91 l0 100 30 -18 c29 -17 30 -20 30
-90z m70 44 c0 -5 -7 -4 -15 3 -8 7 -15 20 -15 29 1 13 3 13 15 -3 8 -11 15
-24 15 -29z m-2074 -44 c-4 -31 -9 -59 -11 -62 -8 -7 -45 31 -45 47 0 19 38
72 52 72 7 0 9 -19 4 -57z m1729 16 c0 -17 -6 -24 -20 -24 -23 0 -33 34 -13
46 20 13 33 5 33 -22z m25 -23 c-7 -7 -10 1 -9 25 0 32 1 33 10 10 6 -16 6
-28 -1 -35z m309 -7 c-14 -28 -19 -23 -19 19 1 34 2 36 15 18 10 -13 11 -24 4
-37z m-1233 10 c11 -19 -9 -27 -93 -34 -79 -6 -83 -5 -83 14 0 17 8 21 48 24
97 7 121 7 128 -4z m214 -4 c0 -12 -17 -15 -90 -15 -73 0 -90 3 -90 15 0 12
17 15 90 15 73 0 90 -3 90 -15z m210 -6 c0 -19 -4 -21 -37 -15 -21 3 -62 6
-90 6 -40 0 -53 4 -53 15 0 12 17 15 90 15 85 0 90 -1 90 -21z m154 5 c36 -5
46 -11 46 -26 0 -14 -5 -17 -22 -14 -13 3 -49 8 -80 11 -41 5 -58 11 -58 21 0
16 37 18 114 8z m-794 -18 c0 -21 -6 -23 -94 -31 -77 -7 -78 -7 -67 13 11 21
34 26 124 30 26 2 37 -2 37 -12z m970 -7 c44 -9 61 -25 45 -41 -3 -3 -27 -1
-53 4 -26 6 -57 12 -69 14 -31 6 -30 34 2 34 13 0 47 -5 75 -11z m188 -12 c2
-12 -1 -15 -12 -11 -19 7 -22 38 -3 32 6 -3 13 -12 15 -21z m-45 6 c-7 -2 -19
-2 -25 0 -7 3 -2 5 12 5 14 0 19 -2 13 -5z m347 -74 c0 -60 -3 -80 -12 -77
-27 9 -19 158 8 158 2 0 4 -36 4 -81z m-1660 57 c0 -16 -13 -21 -77 -31 -35
-6 -43 -4 -43 9 0 16 45 34 93 35 17 1 27 -4 27 -13z m-420 -64 c0 -33 -22
-72 -42 -72 -4 0 -8 32 -8 70 l0 70 25 -16 c19 -12 25 -25 25 -52z m250 29 c0
-14 -13 -24 -47 -35 -28 -10 -50 -13 -56 -7 -19 19 8 35 101 60 1 1 2 -8 2
-18z m1538 -9 c3 -9 -2 -13 -14 -10 -9 1 -19 9 -22 16 -3 9 2 13 14 10 9 -1
19 -9 22 -16z m232 -23 l0 -30 -32 17 -31 16 23 18 c30 23 40 17 40 -21z
m-140 19 c30 -10 32 -12 14 -19 -37 -15 -64 -10 -64 11 0 23 5 24 50 8z
m-1820 -18 c0 -5 -4 -10 -10 -10 -5 0 -10 5 -10 10 0 6 5 10 10 10 6 0 10 -4
10 -10z m50 -23 c0 -7 -16 -21 -35 -30 -34 -16 -35 -16 -35 3 0 21 24 39 53
40 9 0 17 -6 17 -13z m1810 -2 c0 -9 -6 -12 -15 -9 -8 4 -12 10 -9 15 8 14 24
10 24 -6z m78 -11 c19 -13 31 -44 17 -44 -18 0 -65 33 -65 45 0 19 20 19 48
-1z m-1998 -41 c0 -10 -12 -26 -25 -36 -22 -15 -25 -16 -25 -2 0 14 33 55 45
55 3 0 5 -8 5 -17z m2080 -39 c0 -19 -16 -18 -24 2 -11 27 -7 37 9 24 8 -7 15
-19 15 -26z m-321 -1859 c45 -14 81 -29 81 -33 -1 -4 30 -456 67 -1004 37
-549 65 -1000 61 -1003 -3 -3 -51 2 -107 11 l-101 17 0 46 c0 54 -86 1774 -95
1904 -4 57 -3 87 4 87 5 0 46 -11 90 -25z m-676 -3882 c-95 -2 -251 -2 -345 0
-95 1 -18 3 172 3 190 0 267 -2 173 -3z"></path>
    </g>
  </symbol>
</svg>